<?xml version="1.0" encoding="UTF-8"?>
<svg version="1.1" xmlns="http://www.w3.org/2000/svg" width="720" height="720">
<path d="M0 0 C0.74207703 -0.00705963 1.48415405 -0.01411926 2.24871826 -0.02139282 C33.06831622 -0.24795425 33.06831622 -0.24795425 46.171875 3.203125 C46.96368164 3.40180176 47.75548828 3.60047852 48.57128906 3.80517578 C60.56839554 6.87693204 71.35878379 11.1958521 82.171875 17.203125 C83.56986328 17.95916016 83.56986328 17.95916016 84.99609375 18.73046875 C98.58094128 26.42925989 120.9550895 42.98301886 126.171875 58.203125 C125.72384521 58.5655127 125.27581543 58.92790039 124.81420898 59.30126953 C122.74509005 60.97585195 120.67722809 62.65197976 118.609375 64.328125 C117.55266602 65.18277344 117.55266602 65.18277344 116.47460938 66.0546875 C109.08213257 72.05042905 102.28289627 77.88514527 96.171875 85.203125 C95.45902344 86.028125 94.74617188 86.853125 94.01171875 87.703125 C81.06097718 102.98633289 66.24270188 127.070072 65.99487305 147.99316406 C65.98203781 148.94225647 65.96920258 149.89134888 65.95597839 150.86920166 C65.94859146 151.89205261 65.94120453 152.91490356 65.93359375 153.96875 C65.925522 155.03494568 65.91745026 156.10114136 65.90913391 157.199646 C65.89530075 159.46250794 65.88457516 161.72539069 65.87670898 163.98828125 C65.86526016 166.27675596 65.84492306 168.56520549 65.81518555 170.85351562 C65.59426623 187.86553723 66.52697009 202.71791066 73.921875 218.328125 C74.26694092 219.07473389 74.61200684 219.82134277 74.9675293 220.59057617 C80.86837142 233.14644297 87.75180233 243.9977736 97.171875 254.203125 C98.03683594 255.15058594 98.90179687 256.09804688 99.79296875 257.07421875 C109.83993273 267.5988987 121.51056696 275.61357783 134.24609375 282.546875 C136.74052142 283.95894086 138.90704591 285.46258726 141.171875 287.203125 C139.33099398 295.48846134 136.82591573 303.15747619 133.484375 310.953125 C133.04230713 311.99734619 132.60023926 313.04156738 132.14477539 314.11743164 C128.76547283 322.01342493 125.14428033 329.7348631 121.14306641 337.33300781 C120.16782017 339.21093295 119.23548884 341.10562049 118.30859375 343.0078125 C113.61574142 352.45884149 108.02108973 361.25022121 102.171875 370.015625 C101.79500549 370.58149323 101.41813599 371.14736145 101.02984619 371.7303772 C81.96763512 400.26153779 58.34927624 434.28313081 22.6171875 441.80175781 C0.44478087 445.44107855 -19.06434435 438.16903159 -39.34008789 430.21362305 C-53.94958415 424.48399427 -66.73883488 420.99375246 -82.44604492 420.90795898 C-83.88950496 420.89655775 -85.33292694 420.87629933 -86.77612305 420.84643555 C-105.16532082 420.46742963 -120.69394687 425.54637919 -137.640625 432.265625 C-152.06117211 437.95167465 -165.0216537 442.78751433 -180.765625 442.640625 C-181.90717041 442.63305176 -183.04871582 442.62547852 -184.22485352 442.61767578 C-192.4350134 442.45688786 -199.31490176 441.72253501 -206.828125 438.203125 C-207.73691406 437.80222656 -208.64570313 437.40132812 -209.58203125 436.98828125 C-227.06461424 428.40863526 -242.10934603 411.37440619 -253.828125 396.203125 C-254.80954262 394.96196021 -255.79133989 393.72109556 -256.7734375 392.48046875 C-268.76173179 377.2049728 -279.6760793 361.15578925 -288.84423828 344.02685547 C-289.78478527 342.28345944 -290.75692683 340.55721949 -291.73046875 338.83203125 C-328.28236632 272.97881703 -347.48601031 186.46355103 -326.55859375 112.78515625 C-318.75685057 86.84087123 -305.78381215 63.59146692 -286.828125 44.203125 C-285.95542969 43.26855469 -285.08273437 42.33398438 -284.18359375 41.37109375 C-261.60382031 17.73340999 -228.54660527 2.74239142 -195.91015625 1.83203125 C-193.1533223 1.77940139 -190.39793151 1.76296205 -187.640625 1.765625 C-186.91458069 1.76621918 -186.18853638 1.76681335 -185.44049072 1.76742554 C-173.4868989 1.82464094 -163.08916305 3.12693222 -151.828125 7.203125 C-150.02122232 7.83150352 -148.21427599 8.45975897 -146.40664673 9.08604431 C-140.33494377 11.19302598 -134.28143883 13.34776858 -128.23828125 15.53515625 C-122.24928047 17.70210474 -116.24458236 19.81173313 -110.203125 21.828125 C-109.50630615 22.06329834 -108.8094873 22.29847168 -108.09155273 22.54077148 C-98.15092902 25.83584587 -90.15317837 26.13844652 -80.078125 23.08203125 C-79.33810242 22.8607103 -78.59807983 22.63938934 -77.83563232 22.41136169 C-70.23814605 20.09552228 -62.79830704 17.37923548 -55.35626221 14.61120605 C-16.26700439 0.10236271 -16.26700439 0.10236271 0 0 Z " fill="#FEFEFE" transform="translate(456.828125,208.796875)"/>
<path d="M0 0 C1.13288375 36.93201027 -8.01016756 70.22176667 -33.5625 97.91015625 C-53.11959327 118.50220963 -78.42332943 133.85870692 -107.4140625 135.15234375 C-115.52117407 135.23941297 -115.52117407 135.23941297 -118 134 C-124.64723683 114.0582895 -112.77209973 85.93044104 -104.09130859 68.12792969 C-99.52344584 59.22110826 -93.86882332 51.39004956 -86.98828125 44.10546875 C-85.36938544 42.39115669 -83.89080639 40.66437202 -82.4375 38.8125 C-79.25583233 35.14134499 -75.71964493 32.11181663 -72 29 C-71.30519531 28.38253906 -70.61039062 27.76507813 -69.89453125 27.12890625 C-51.42405027 11.32885625 -24.49383792 -0.4273734 0 0 Z " fill="#FCFCFC" transform="translate(477,68)"/>
</svg>
