<?xml version="1.0" encoding="UTF-8"?>
<svg version="1.1" xmlns="http://www.w3.org/2000/svg" width="24" height="25">
<path d="M0 0 C2.9375 1.5 2.9375 1.5 5 3 C4.0625 5 4.0625 5 2 7 C-0.36084155 7.21619428 -2.57867241 7.12377844 -4.94140625 6.9453125 C-7.22854508 6.76982547 -7.22854508 6.76982547 -9 9 C-9.33333333 12.5 -9.33333333 12.5 -9 16 C-7.12061828 18.29827312 -7.12061828 18.29827312 -4.0625 18.3125 C-1.00251018 18.27988518 -1.00251018 18.27988518 0.875 16.5 C1.24625 16.005 1.6175 15.51 2 15 C0.02 15 -1.96 15 -4 15 C-4 13.35 -4 11.7 -4 10 C-0.04 10 3.92 10 8 10 C8.29321709 14.98469052 8.18338925 18.04820644 5 22 C1.06538376 25.16955197 -2.02077887 25.53348798 -7 25 C-11.09613637 23.19007928 -13.73195328 20.8640796 -16 17 C-16.89438512 12.93322319 -16.91119895 9.5367556 -14.75390625 5.8984375 C-10.37678977 0.59350331 -6.97561892 -0.48107717 0 0 Z " fill="#39A459" transform="translate(16,0)"/>
<path d="M0 0 C2.9375 1.5 2.9375 1.5 5 3 C4.0625 5 4.0625 5 2 7 C-0.36084155 7.21619428 -2.57867241 7.12377844 -4.94140625 6.9453125 C-7.22854508 6.76982547 -7.22854508 6.76982547 -9 9 C-9.28875 10.155 -9.5775 11.31 -9.875 12.5 C-11 16 -11 16 -13.125 17.4375 C-13.74375 17.623125 -14.3625 17.80875 -15 18 C-16.53971828 16.46028172 -16.31779707 15.01514329 -16.4375 12.875 C-16.40671445 8.05706129 -14.83256671 5.75473783 -11.60546875 2.3125 C-8.09355461 -0.5585539 -4.330461 -0.29865248 0 0 Z " fill="#E54437" transform="translate(16,0)"/>
<path d="M0 0 C3.96 0 7.92 0 12 0 C12.2954439 5.02254631 11.98514628 7.89542386 9 12 C8.67 11.34 8.34 10.68 8 10 C7.34 10 6.68 10 6 10 C5.67 9.01 5.34 8.02 5 7 C5.33 6.34 5.66 5.68 6 5 C4.02 5 2.04 5 0 5 C0 3.35 0 1.7 0 0 Z " fill="#4584ED" transform="translate(12,10)"/>
<path d="M0 0 C2.5 1.1875 2.5 1.1875 5 3 C5.625 5.5 5.625 5.5 5 8 C2.5 9.8125 2.5 9.8125 0 11 C-1 10 -1 10 -1.1328125 7.96875 C-1.13023438 7.1540625 -1.12765625 6.339375 -1.125 5.5 C-1.12757812 4.6853125 -1.13015625 3.870625 -1.1328125 3.03125 C-1 1 -1 1 0 0 Z " fill="#EFB913" transform="translate(1,7)"/>
<path d="M0 0 C2 3 2 3 1.625 5.1875 C1.41875 5.785625 1.2125 6.38375 1 7 C-0.32 5.68 -1.64 4.36 -3 3 C-2.01 2.01 -1.02 1.02 0 0 Z " fill="#DA5029" transform="translate(4,3)"/>
</svg>
